<svg width="174" height="26" viewBox="0 0 174 26" fill="none" xmlns="http://www.w3.org/2000/svg">
<path d="M0.35 20V2.5H8.55C10.65 2.5 12.25 2.91667 13.35 3.75C14.45 4.56667 15 5.66667 15 7.05C15 7.98333 14.7833 8.78333 14.35 9.45C13.9167 10.1 13.3333 10.6083 12.6 10.975C11.8833 11.325 11.1 11.5 10.25 11.5L10.7 10.6C11.6833 10.6 12.5667 10.7833 13.35 11.15C14.1333 11.5 14.75 12.0167 15.2 12.7C15.6667 13.3833 15.9 14.2333 15.9 15.25C15.9 16.75 15.325 17.9167 14.175 18.75C13.025 19.5833 11.3167 20 9.05 20H0.35ZM3.6 17.45H8.85C10.0667 17.45 11 17.25 11.65 16.85C12.3 16.45 12.625 15.8083 12.625 14.925C12.625 14.0583 12.3 13.425 11.65 13.025C11 12.6083 10.0667 12.4 8.85 12.4H3.35V9.875H8.2C9.33333 9.875 10.2 9.675 10.8 9.275C11.4167 8.875 11.725 8.275 11.725 7.475C11.725 6.65833 11.4167 6.05 10.8 5.65C10.2 5.25 9.33333 5.05 8.2 5.05H3.6V17.45ZM19.0686 20V6.65H22.0436V10.325L21.6936 9.25C22.0936 8.35 22.7186 7.66667 23.5686 7.2C24.4352 6.73333 25.5102 6.5 26.7936 6.5V9.475C26.6602 9.44167 26.5352 9.425 26.4186 9.425C26.3019 9.40833 26.1852 9.4 26.0686 9.4C24.8852 9.4 23.9436 9.75 23.2436 10.45C22.5436 11.1333 22.1936 12.1583 22.1936 13.525V20H19.0686ZM28.4666 20V18.025L36.6916 8.075L37.2666 9.15H28.6166V6.65H39.7666V8.625L31.5416 18.575L30.9166 17.5H39.9916V20H28.4666ZM48.5973 20.25C47.2306 20.25 45.9223 20.0583 44.6723 19.675C43.4223 19.275 42.4306 18.7667 41.6973 18.15L42.8223 15.625C43.5223 16.175 44.3889 16.6333 45.4223 17C46.4556 17.3667 47.5139 17.55 48.5973 17.55C49.5139 17.55 50.2556 17.45 50.8223 17.25C51.3889 17.05 51.8056 16.7833 52.0723 16.45C52.3389 16.1 52.4723 15.7083 52.4723 15.275C52.4723 14.7417 52.2806 14.3167 51.8973 14C51.5139 13.6667 51.0139 13.4083 50.3973 13.225C49.7973 13.025 49.1223 12.8417 48.3723 12.675C47.6389 12.5083 46.8973 12.3167 46.1473 12.1C45.4139 11.8667 44.7389 11.575 44.1223 11.225C43.5223 10.8583 43.0306 10.375 42.6473 9.775C42.2639 9.175 42.0723 8.40833 42.0723 7.475C42.0723 6.525 42.3223 5.65833 42.8223 4.875C43.3389 4.075 44.1139 3.44167 45.1473 2.975C46.1973 2.49167 47.5223 2.25 49.1223 2.25C50.1723 2.25 51.2139 2.38333 52.2473 2.65C53.2806 2.91667 54.1806 3.3 54.9473 3.8L53.9223 6.325C53.1389 5.85833 52.3306 5.51667 51.4973 5.3C50.6639 5.06667 49.8639 4.95 49.0973 4.95C48.1973 4.95 47.4639 5.05833 46.8973 5.275C46.3473 5.49167 45.9389 5.775 45.6723 6.125C45.4223 6.475 45.2973 6.875 45.2973 7.325C45.2973 7.85833 45.4806 8.29167 45.8473 8.625C46.2306 8.94167 46.7223 9.19167 47.3223 9.375C47.9389 9.55833 48.6223 9.74167 49.3723 9.925C50.1223 10.0917 50.8639 10.2833 51.5973 10.5C52.3473 10.7167 53.0223 11 53.6223 11.35C54.2389 11.7 54.7306 12.175 55.0973 12.775C55.4806 13.375 55.6723 14.1333 55.6723 15.05C55.6723 15.9833 55.4139 16.85 54.8973 17.65C54.3973 18.4333 53.6223 19.0667 52.5723 19.55C51.5223 20.0167 50.1973 20.25 48.5973 20.25ZM63.6199 20.175C62.1533 20.175 61.0199 19.8 60.2199 19.05C59.4199 18.2833 59.0199 17.1583 59.0199 15.675V3.7H62.1449V15.6C62.1449 16.2333 62.3033 16.725 62.6199 17.075C62.9533 17.425 63.4116 17.6 63.9949 17.6C64.6949 17.6 65.2783 17.4167 65.7449 17.05L66.6199 19.275C66.2533 19.575 65.8033 19.8 65.2699 19.95C64.7366 20.1 64.1866 20.175 63.6199 20.175ZM56.8199 9.25V6.75H65.7199V9.25H56.8199ZM69.1906 20V6.65H72.1656V10.325L71.8156 9.25C72.2156 8.35 72.8406 7.66667 73.6906 7.2C74.5573 6.73333 75.6323 6.5 76.9156 6.5V9.475C76.7823 9.44167 76.6573 9.425 76.5406 9.425C76.424 9.40833 76.3073 9.4 76.1906 9.4C75.0073 9.4 74.0656 9.75 73.3656 10.45C72.6656 11.1333 72.3156 12.1583 72.3156 13.525V20H69.1906ZM85.7195 20.175C84.2362 20.175 82.9362 19.8833 81.8195 19.3C80.7195 18.7 79.8612 17.8833 79.2445 16.85C78.6445 15.8167 78.3445 14.6417 78.3445 13.325C78.3445 11.9917 78.6362 10.8167 79.2195 9.8C79.8195 8.76667 80.6362 7.95833 81.6695 7.375C82.7195 6.79167 83.9112 6.5 85.2445 6.5C86.5445 6.5 87.7029 6.78333 88.7195 7.35C89.7362 7.91667 90.5362 8.71667 91.1195 9.75C91.7029 10.7833 91.9945 12 91.9945 13.4C91.9945 13.5333 91.9862 13.6833 91.9695 13.85C91.9695 14.0167 91.9612 14.175 91.9445 14.325H80.8195V12.25H90.2945L89.0695 12.9C89.0862 12.1333 88.9279 11.4583 88.5945 10.875C88.2612 10.2917 87.8029 9.83333 87.2195 9.5C86.6529 9.16667 85.9945 9 85.2445 9C84.4779 9 83.8029 9.16667 83.2195 9.5C82.6529 9.83333 82.2029 10.3 81.8695 10.9C81.5529 11.4833 81.3945 12.175 81.3945 12.975V13.475C81.3945 14.275 81.5779 14.9833 81.9445 15.6C82.3112 16.2167 82.8279 16.6917 83.4945 17.025C84.1612 17.3583 84.9279 17.525 85.7945 17.525C86.5445 17.525 87.2195 17.4083 87.8195 17.175C88.4195 16.9417 88.9529 16.575 89.4195 16.075L91.0945 18C90.4945 18.7 89.7362 19.2417 88.8195 19.625C87.9195 19.9917 86.8862 20.175 85.7195 20.175ZM102.855 20V17.3L102.68 16.725V12C102.68 11.0833 102.405 10.375 101.855 9.875C101.305 9.35833 100.472 9.1 99.3551 9.1C98.6051 9.1 97.8634 9.21667 97.1301 9.45C96.4134 9.68333 95.8051 10.0083 95.3051 10.425L94.0801 8.15C94.7967 7.6 95.6467 7.19167 96.6301 6.925C97.6301 6.64167 98.6634 6.5 99.7301 6.5C101.663 6.5 103.155 6.96667 104.205 7.9C105.272 8.81667 105.805 10.2417 105.805 12.175V20H102.855ZM98.6551 20.175C97.6551 20.175 96.7801 20.0083 96.0301 19.675C95.2801 19.325 94.6967 18.85 94.2801 18.25C93.8801 17.6333 93.6801 16.9417 93.6801 16.175C93.6801 15.425 93.8551 14.75 94.2051 14.15C94.5717 13.55 95.1634 13.075 95.9801 12.725C96.7967 12.375 97.8801 12.2 99.2301 12.2H103.105V14.275H99.4551C98.3884 14.275 97.6717 14.45 97.3051 14.8C96.9384 15.1333 96.7551 15.55 96.7551 16.05C96.7551 16.6167 96.9801 17.0667 97.4301 17.4C97.8801 17.7333 98.5051 17.9 99.3051 17.9C100.072 17.9 100.755 17.725 101.355 17.375C101.972 17.025 102.413 16.5083 102.68 15.825L103.205 17.7C102.905 18.4833 102.363 19.0917 101.58 19.525C100.813 19.9583 99.8384 20.175 98.6551 20.175ZM126.666 6.5C127.732 6.5 128.674 6.70833 129.491 7.125C130.324 7.54167 130.974 8.18333 131.441 9.05C131.907 9.9 132.141 11 132.141 12.35V20H129.016V12.75C129.016 11.5667 128.757 10.6833 128.241 10.1C127.724 9.51667 126.982 9.225 126.016 9.225C125.332 9.225 124.724 9.375 124.191 9.675C123.674 9.975 123.266 10.4167 122.966 11C122.682 11.5833 122.541 12.325 122.541 13.225V20H119.416V12.75C119.416 11.5667 119.157 10.6833 118.641 10.1C118.124 9.51667 117.382 9.225 116.416 9.225C115.732 9.225 115.124 9.375 114.591 9.675C114.074 9.975 113.666 10.4167 113.366 11C113.082 11.5833 112.941 12.325 112.941 13.225V20H109.816V6.65H112.791V10.2L112.266 9.15C112.716 8.28333 113.366 7.625 114.216 7.175C115.082 6.725 116.066 6.5 117.166 6.5C118.416 6.5 119.499 6.80833 120.416 7.425C121.349 8.04167 121.966 8.975 122.266 10.225L121.041 9.8C121.474 8.8 122.191 8 123.191 7.4C124.191 6.8 125.349 6.5 126.666 6.5ZM136.134 20V6.65H139.259V20H136.134ZM137.709 4.45C137.126 4.45 136.642 4.26667 136.259 3.9C135.892 3.53333 135.709 3.09167 135.709 2.575C135.709 2.04167 135.892 1.6 136.259 1.25C136.642 0.883333 137.126 0.7 137.709 0.7C138.292 0.7 138.767 0.874999 139.134 1.225C139.517 1.55833 139.709 1.98333 139.709 2.5C139.709 3.05 139.526 3.51667 139.159 3.9C138.792 4.26667 138.309 4.45 137.709 4.45ZM150.936 6.5C152.002 6.5 152.952 6.70833 153.786 7.125C154.636 7.54167 155.302 8.18333 155.786 9.05C156.269 9.9 156.511 11 156.511 12.35V20H153.386V12.75C153.386 11.5667 153.102 10.6833 152.536 10.1C151.986 9.51667 151.211 9.225 150.211 9.225C149.477 9.225 148.827 9.375 148.261 9.675C147.694 9.975 147.252 10.425 146.936 11.025C146.636 11.6083 146.486 12.35 146.486 13.25V20H143.361V6.65H146.336V10.25L145.811 9.15C146.277 8.3 146.952 7.65 147.836 7.2C148.736 6.73333 149.769 6.5 150.936 6.5ZM166.549 25.025C165.316 25.025 164.108 24.8583 162.924 24.525C161.758 24.2083 160.799 23.7417 160.049 23.125L161.449 20.775C162.033 21.2583 162.766 21.6417 163.649 21.925C164.549 22.225 165.458 22.375 166.374 22.375C167.841 22.375 168.916 22.0333 169.599 21.35C170.283 20.6833 170.624 19.675 170.624 18.325V15.95L170.874 12.925L170.774 9.9V6.65H173.749V17.975C173.749 20.3917 173.133 22.1667 171.899 23.3C170.666 24.45 168.883 25.025 166.549 25.025ZM166.149 19.4C164.883 19.4 163.733 19.1333 162.699 18.6C161.683 18.05 160.874 17.2917 160.274 16.325C159.691 15.3583 159.399 14.225 159.399 12.925C159.399 11.6417 159.691 10.5167 160.274 9.55C160.874 8.58333 161.683 7.83333 162.699 7.3C163.733 6.76667 164.883 6.5 166.149 6.5C167.283 6.5 168.299 6.725 169.199 7.175C170.099 7.625 170.816 8.325 171.349 9.275C171.899 10.225 172.174 11.4417 172.174 12.925C172.174 14.4083 171.899 15.6333 171.349 16.6C170.816 17.55 170.099 18.2583 169.199 18.725C168.299 19.175 167.283 19.4 166.149 19.4ZM166.624 16.75C167.408 16.75 168.108 16.5917 168.724 16.275C169.341 15.9417 169.816 15.4917 170.149 14.925C170.499 14.3417 170.674 13.675 170.674 12.925C170.674 12.175 170.499 11.5167 170.149 10.95C169.816 10.3667 169.341 9.925 168.724 9.625C168.108 9.30833 167.408 9.15 166.624 9.15C165.841 9.15 165.133 9.30833 164.499 9.625C163.883 9.925 163.399 10.3667 163.049 10.95C162.716 11.5167 162.549 12.175 162.549 12.925C162.549 13.675 162.716 14.3417 163.049 14.925C163.399 15.4917 163.883 15.9417 164.499 16.275C165.133 16.5917 165.841 16.75 166.624 16.75Z" fill="white"/>
</svg>
